# xmcd
#
# Track frame offsets:
#	150
#	21586
#	38091
#	55174
#	77784
#	94924
#	115833
#	138288
#	155042
#	169811
#	184670
#	206894
#
# Disc length: 2979 seconds
#
# Revision: 1
# Processed by: cddbd v1.5.2PL0 Copyright (c) Steve Scherf et al.
# Submitted via: audiograbber 1.83.01
#
DISCID=a60ba10c
DTITLE=Gretchen Wilson - Under The Covers
DYEAR=2013
DGENRE=Country
TTITLE0=Stay With Me
TTITLE1=Doctor My Eyes
TTITLE2=Everybody Wants You
TTITLE3=Bell Bottom Blues
TTITLE4=Funk #49
TTITLE5=Hot Blooded
TTITLE6=Over The Hills and Far Away
TTITLE7=I Want You To Want Me
TTITLE8=Lights
TTITLE9=Her Strut
TTITLE10=Bad Company
TTITLE11=Into The Mystic
EXTD=
EXTT0=
EXTT1=
EXTT2=
EXTT3=
EXTT4=
EXTT5=
EXTT6=
EXTT7=
EXTT8=
EXTT9=
EXTT10=
EXTT11=
PLAYORDER=
